<svg width="22" height="26" viewBox="0 0 22 26" fill="none" xmlns="http://www.w3.org/2000/svg">
<path d="M20.1926 3.68236C21.1218 3.08505 21.3908 1.84762 20.7935 0.918485C20.1962 -0.0106554 18.9587 -0.279661 18.0296 0.317643L20.1926 3.68236ZM2 13L0.918485 11.3176C0.34604 11.6856 0 12.3195 0 13C0 13.6805 0.34604 14.3144 0.918485 14.6824L2 13ZM18.0296 25.6824C18.9587 26.2797 20.1962 26.0107 20.7935 25.0815C21.3908 24.1524 21.1218 22.9149 20.1926 22.3176L18.0296 25.6824ZM18.0296 0.317643L0.918485 11.3176L3.08152 14.6824L20.1926 3.68236L18.0296 0.317643ZM0.918485 14.6824L18.0296 25.6824L20.1926 22.3176L3.08152 11.3176L0.918485 14.6824Z" fill="black"/>
</svg>
