<svg width="25" height="23" viewBox="0 0 25 23" fill="none" xmlns="http://www.w3.org/2000/svg">
<path d="M12.2302 21.1605C8.92126 17.5755 5.30731 14.2409 2.29679 10.4055C1.92545 9.93106 1.35517 8.82393 1.34191 7.36753C1.32865 5.34439 2.48246 3.27512 4.45853 2.31298C6.68658 1.22562 8.85495 2.07574 9.61753 2.43819C11.0764 3.14332 11.8854 4.23727 12.2302 4.77765C12.5617 4.19773 13.3707 2.97198 14.9025 2.24708C17.1239 1.19926 20.088 1.58148 21.8386 3.44646C21.9912 3.60462 23.4169 5.17964 23.3041 7.36753C23.2378 8.58669 22.7272 9.50271 22.3492 10.0892C19.9355 13.8719 12.9729 20.4619 12.2302 21.1605Z" stroke="black" stroke-width="2.5" stroke-miterlimit="10" stroke-linejoin="round"/>
</svg>
