<svg width="49" height="21" viewBox="0 0 49 21" fill="none" xmlns="http://www.w3.org/2000/svg">
<path d="M29.7535 2.82014C28.3557 1.00719 26.259 0 23.9126 0C21.5663 0 19.4696 1.00719 18.0218 2.82014C17.4727 3.47482 17.0733 4.23022 16.7239 5.08633C16.4743 5.69065 15.5757 5.69065 15.3261 5.08633C14.9766 4.23022 14.5273 3.47482 14.0281 2.82014C12.5803 1.00719 10.4836 0 8.13729 0C5.79095 0 3.69423 1.00719 2.24649 2.82014C0.74883 4.73381 0 7.30216 0 10.6259C0 18.2806 4.19345 21 8.13729 21C10.5335 21 12.5304 20.0935 13.9782 18.3309C14.5273 17.6763 14.9766 16.9209 15.3261 16.0647C15.5757 15.4604 16.4743 15.4604 16.7239 16.0647C18.1716 19.6403 21.117 21 23.9126 21C26.3089 21 28.3058 20.0935 29.7535 18.3309C31.2512 16.518 32 13.8993 32 10.6259C32 7.30216 31.2512 4.73381 29.7535 2.82014ZM23.9126 17.1727C20.1186 17.1727 19.5694 13.0432 19.5694 10.5755C19.5694 6.2446 21.1669 3.77698 23.9126 3.77698C26.6583 3.77698 28.2558 6.2446 28.2558 10.5755C28.2558 13.0432 27.7067 17.1727 23.9126 17.1727Z" fill="black"/>
<path d="M41.5 0C35.9785 0 34 5.69065 34 10.6259C34 18.2806 37.865 21 41.5 21C45.135 21 49 18.2806 49 10.6259C49 5.69065 47.0215 0 41.5 0Z" fill="#95C11F"/>
</svg>
